<svg id="Camada_1" data-name="Camada 1" xmlns="http://www.w3.org/2000/svg" viewBox="0 0 68 76"><defs><style>.cls-1{fill:none;stroke:#0084ff;stroke-miterlimit:10;stroke-width:6px;}</style></defs><path d="M28.32,48.49c-.09,0-.36.15-.8.31a4,4,0,0,1-1.28.23,1.2,1.2,0,0,1-1.12-.56,2.46,2.46,0,0,1-.32-1h0c0-.14,0-.29,0-.44V35.6a7.06,7.06,0,0,0-2-5.21q-2-2-6.17-2a10.74,10.74,0,0,0-4.24.77,6.12,6.12,0,0,0-2.77,2.24,6.77,6.77,0,0,0-1,3.79v2H6.38v4.15H8.66V53.59H14.1V41.35h2.69V37.2H14.1v-.79a5.13,5.13,0,0,1,.27-1.76,2.46,2.46,0,0,1,.87-1.19A2.59,2.59,0,0,1,16.85,33a2.41,2.41,0,0,1,1.57.45,2.23,2.23,0,0,1,.73,1.27,9.56,9.56,0,0,1,.19,2v13a3.83,3.83,0,0,0,1.31,2.95,4.35,4.35,0,0,0,.41.34h7.59A3.61,3.61,0,0,0,29,52.9Z"/><path d="M48.16,48.7a1.92,1.92,0,0,1-.25-1.14V42.72l-1.65-1-3.79-2.28V46.8a5.47,5.47,0,0,1-1.16,1.49,4.14,4.14,0,0,1-1.33.8,4,4,0,0,1-1.42.25,2.21,2.21,0,0,1-1.86-.85A3.9,3.9,0,0,1,36,46.06V35.94H30.6V47.27a7.47,7.47,0,0,0,1.44,5,4.52,4.52,0,0,0,.92.83,5.73,5.73,0,0,0,3.25.87,9.69,9.69,0,0,0,4.08-.82l.11,0a7.59,7.59,0,0,0,2.92-2.53l.1,1.08a2.57,2.57,0,0,0,.75,1.45l.3.23a3.9,3.9,0,0,0,2.28.54,5.69,5.69,0,0,0,1,0,10,10,0,0,0,1.32-.22V49.07A1.16,1.16,0,0,1,48.16,48.7ZM42.47,35.94v1.34l5.44,2.85V35.94Z"/><path class="cls-1" d="M54.34,17.6a10.8,10.8,0,0,1-10,10.77,8.12,8.12,0,0,1-.86,0,11.09,11.09,0,0,1-2.17-.22h0a10.81,10.81,0,1,1,13-10.59Z"/><path class="cls-1" d="M41.47,28.29c-.25-.25,3.72.83,4.61,1,9.16,1.37,15.54,10.56,15.54,20.4a20,20,0,0,1-3.23,10.92A19.6,19.6,0,0,1,42.68,69.2,19.47,19.47,0,0,1,25.32,58.52"/></svg>