<svg id="Camada_1" data-name="Camada 1" xmlns="http://www.w3.org/2000/svg" viewBox="0 0 739 281"><defs><style>.cls-1{fill:#fff;}.cls-2,.cls-3{fill:none;stroke-miterlimit:10;}.cls-2{stroke:#0084ff;stroke-width:25px;}.cls-3{stroke:#000;}</style></defs><rect class="cls-1" width="739" height="281"/><path d="M96.35,183.7q-.57.28-3.3,1.26a15.6,15.6,0,0,1-5.25,1,5,5,0,0,1-4.62-2.31,9.86,9.86,0,0,1-1.3-4.13h0a15.14,15.14,0,0,1-.1-1.82V130.61q0-13.31-8.06-21.43T48.3,101.06a44.1,44.1,0,0,0-17.44,3.15,25.24,25.24,0,0,0-11.41,9.24q-4.07,6.09-4.07,15.62v8.12H6v17.09h9.38v50.43H37.8V154.28H48.86V137.19H37.8V134a21.22,21.22,0,0,1,1.12-7.28,10.25,10.25,0,0,1,3.57-4.9A10.87,10.87,0,0,1,49.14,120c2.8,0,5,.6,6.44,1.82a9.1,9.1,0,0,1,3,5.26,38.25,38.25,0,0,1,.77,8.21V189a15.89,15.89,0,0,0,5.39,12.14,15.09,15.09,0,0,0,1.71,1.37H97.72a15.39,15.39,0,0,0,1.57-.62Z"/><path d="M178.08,184.56c-.7-.92-1.05-2.48-1.05-4.69v-20l-6.78-4.07-15.64-9.38v30.28a22.32,22.32,0,0,1-4.76,6.11,17.42,17.42,0,0,1-5.46,3.32,17.07,17.07,0,0,1-5.88,1,9.11,9.11,0,0,1-7.64-3.52q-2.73-3.51-2.73-10V132H105.73v46.68q0,13.42,6,20.42a18.17,18.17,0,0,0,3.79,3.39q5.34,3.62,13.37,3.61a40,40,0,0,0,16.81-3.39l.46-.22a30.78,30.78,0,0,0,12-10.38l.42,4.43a10.41,10.41,0,0,0,3.11,5.95,10.72,10.72,0,0,0,1.23,1q3.5,2.35,9.38,2.22a25.28,25.28,0,0,0,4.13-.07,43.1,43.1,0,0,0,5.4-.91V186.08A4.7,4.7,0,0,1,178.08,184.56ZM154.61,132v5.53L177,149.26V132Z"/><path d="M295.88,205.53a43.16,43.16,0,0,1-16.41-2.93,36.52,36.52,0,0,1-12.2-8A34.18,34.18,0,0,1,259.62,183,37.17,37.17,0,0,1,257,169.13a38.74,38.74,0,0,1,4.62-18.82,35.34,35.34,0,0,1,13.3-13.65q8.68-5.17,21-5.17t21,5.11A34,34,0,0,1,330,150.15a38,38,0,0,1,4.48,18.1,32.9,32.9,0,0,1-.2,3.75c-.14,1.22-.26,2.29-.35,3.2H280.44A14.27,14.27,0,0,0,289,187.93a18,18,0,0,0,7.44,1.61,19.53,19.53,0,0,0,9.45-2.35,12.18,12.18,0,0,0,5.86-6.2l18.75,5.38a30.2,30.2,0,0,1-7.72,9.85A39.24,39.24,0,0,1,311,203,42.83,42.83,0,0,1,295.88,205.53ZM280,161.69h31.3a16,16,0,0,0-2.62-7.64,15.63,15.63,0,0,0-5.51-5.05A17,17,0,0,0,288,149a14.39,14.39,0,0,0-5.51,5A16.82,16.82,0,0,0,280,161.69Z"/><path d="M414.45,204.15H392.39v-40q0-7-2.83-10.22a9.1,9.1,0,0,0-7.1-3.19,13.78,13.78,0,0,0-6.2,1.6,20.53,20.53,0,0,0-5.79,4.41,17.66,17.66,0,0,0-3.86,6.4v41H344.55V132.6H364.4v12.23a26.57,26.57,0,0,1,6.9-7.35,29.62,29.62,0,0,1,9.51-4.49,42.9,42.9,0,0,1,11.58-1.5q7.17,0,11.51,2.45a17,17,0,0,1,6.62,6.46,27,27,0,0,1,3.1,8.78,54.24,54.24,0,0,1,.83,9.25Z"/><path d="M457.05,205.53A30.14,30.14,0,0,1,444,202.7a29.74,29.74,0,0,1-10.13-7.87,37.76,37.76,0,0,1-6.55-11.68,42.44,42.44,0,0,1-2.34-14.23,43.45,43.45,0,0,1,2.48-14.77,36,36,0,0,1,7-12,31.54,31.54,0,0,1,24.2-10.71,29.56,29.56,0,0,1,14.34,3.38,25.94,25.94,0,0,1,9.93,9.58V132.6H502v67a32.91,32.91,0,0,1-5.31,18.74,34.65,34.65,0,0,1-14.75,12.24,52.21,52.21,0,0,1-21.85,4.31q-11.58,0-19.93-3.79a43.64,43.64,0,0,1-14.54-10.69l11.85-12a30.37,30.37,0,0,0,22.62,10.06,25.6,25.6,0,0,0,9.85-1.84,16.2,16.2,0,0,0,7.24-5.78q2.76-3.94,2.76-10.44v-7.17a21.57,21.57,0,0,1-9.58,9.17A29.63,29.63,0,0,1,457.05,205.53ZM464.77,188a15,15,0,0,0,4.69-.76,16.83,16.83,0,0,0,4.28-2.08,19,19,0,0,0,3.58-3.18,15.26,15.26,0,0,0,2.62-4.08V162.7a19.27,19.27,0,0,0-4-6.71,20.15,20.15,0,0,0-5.79-4.43,14.57,14.57,0,0,0-6.62-1.59,13.35,13.35,0,0,0-6.41,1.59A16.11,16.11,0,0,0,452,156a21.48,21.48,0,0,0-3.38,6.22,22.16,22.16,0,0,0-1.17,7.27,19.87,19.87,0,0,0,1.31,7.33,17.81,17.81,0,0,0,3.66,5.81,17.44,17.44,0,0,0,5.51,3.95A16.3,16.3,0,0,0,464.77,188Z"/><path d="M516.89,103.5H539v74.87q0,4.55,1.65,6.48a6,6,0,0,0,4.83,1.93,16.21,16.21,0,0,0,4.07-.55,12.29,12.29,0,0,0,3.79-1.66l2.89,16.69a55.78,55.78,0,0,1-9.51,3,44.69,44.69,0,0,1-10.06,1.24q-9.52,0-14.62-5t-5.1-14.41Z"/><path d="M563.35,123.63V103.5h22.06v20.13Zm0,80.52V131.77h22.06v72.38Z"/><path d="M628.29,205.53a53.39,53.39,0,0,1-18-3.1,41.27,41.27,0,0,1-15-9l7.72-13.79a54,54,0,0,0,12.75,7.24,32.87,32.87,0,0,0,11.79,2.41,14.56,14.56,0,0,0,6.55-1.23,4.16,4.16,0,0,0,2.41-4,3.66,3.66,0,0,0-1.45-3.12,17.27,17.27,0,0,0-4.2-2.11c-1.84-.67-4.14-1.38-6.9-2.1q-8.26-2.85-13.78-5.36a20.67,20.67,0,0,1-8.28-6.25,16,16,0,0,1-2.75-9.72,21.47,21.47,0,0,1,3.72-12.56,24.41,24.41,0,0,1,10.41-8.36,39.22,39.22,0,0,1,16.06-3A46.55,46.55,0,0,1,644,133.84a36.81,36.81,0,0,1,13.37,8l-8.69,13.65a54.06,54.06,0,0,0-11-6.2,25.6,25.6,0,0,0-9.44-1.93,15.86,15.86,0,0,0-4.28.54,6.74,6.74,0,0,0-3.1,1.76,4.68,4.68,0,0,0-1.17,3.38,4.56,4.56,0,0,0,1.17,3.18,8.87,8.87,0,0,0,3.73,2.17c1.69.58,3.79,1.24,6.27,2a140,140,0,0,1,15.1,5.28,21.63,21.63,0,0,1,9,6.49q3,3.93,3,10.28,0,10.83-8,17T628.29,205.53Z"/><path d="M739,204.15H716.94v-40q0-6.9-2.89-10.16a9.72,9.72,0,0,0-7.59-3.25,13.3,13.3,0,0,0-5.65,1.54,18.75,18.75,0,0,0-5.72,4.33,19.82,19.82,0,0,0-3.93,6.54v41H669.1V103.5h22.06v41.33a26.5,26.5,0,0,1,10.55-9.94,31.13,31.13,0,0,1,14.54-3.4q7.31,0,11.79,2.45a17.58,17.58,0,0,1,6.82,6.33A25.63,25.63,0,0,1,738.1,149a51.53,51.53,0,0,1,.9,9.45Z"/><path class="cls-2" d="M203.5,56.5a44.5,44.5,0,0,1-41,44.36c-1.16.09-2.34.14-3.53.14a45.3,45.3,0,0,1-8.93-.89h0A44.51,44.51,0,1,1,203.5,56.5Z"/><path class="cls-2" d="M150.5,100.5c-1-1,15.31,3.44,19,4,37.72,5.65,64,43.51,64,84a82.29,82.29,0,0,1-1.36,15,81.25,81.25,0,0,1-11.95,30C210,249.09,186.73,268.66,155.5,269c-29.71.33-57.45-16.8-71.5-44"/><line class="cls-3" x1="37.8" y1="202.5" x2="34" y2="202.5"/></svg>